<svg width="220" height="201" viewBox="0 0 220 201" fill="none" xmlns="http://www.w3.org/2000/svg">
<path d="M18.2725 36.5469C8.1806 36.5469 0 44.7696 0 54.8196V182.729C0 192.779 8.18087 201.001 18.2725 201.001H200.998C211.093 201.001 219.27 192.779 219.27 182.729V54.8196C219.27 44.7696 211.093 36.5469 200.998 36.5469H18.2725Z" fill="#2980B9"/>
<path d="M27.4092 0C17.3173 0 9.13672 8.22273 9.13672 18.2727V146.182C9.13672 156.232 17.3173 164.455 27.4092 164.455H127.908H173.589H191.862C201.957 164.455 210.134 156.232 210.134 146.182V63.9545V36.5455C210.134 26.4955 201.957 18.2727 191.862 18.2727H173.589H127.908H118.772L91.363 0H27.4092Z" fill="#2980B9"/>
<path d="M210.134 118.77V45.679C210.134 35.629 201.957 27.4062 191.862 27.4062H91.363H45.6817H27.4092C17.3173 27.4062 9.13672 35.629 9.13672 45.679V118.77H210.134Z" fill="#BDC3C7"/>
<path d="M18.2725 36.5469C8.1806 36.5469 0 44.7696 0 54.8196V109.638V118.774V173.592C0 183.642 8.18087 191.865 18.2725 191.865H200.998C211.093 191.865 219.27 183.642 219.27 173.592V118.774V109.638V54.8196C219.27 44.7696 211.093 36.5469 200.998 36.5469H18.2725Z" fill="#3498DB"/>
<path d="M57.102 54.8203C53.9609 54.8203 51.3443 55.7333 49.1077 57.5606C46.8712 60.3015 45.6816 63.0426 45.6816 65.7835V161.715C45.6816 165.37 46.8712 167.197 49.1077 169.938C51.3443 171.766 53.9609 173.593 57.102 173.593H100.499H118.772H162.169C165.312 173.593 167.925 171.766 170.163 169.938C172.401 167.197 173.589 165.37 173.589 161.715V65.7835C173.589 63.0426 172.401 60.3015 170.163 57.5606C167.925 55.7333 165.312 54.8203 162.169 54.8203H118.772H100.499H57.102ZM59.386 63.9567H68.5223C69.7593 63.9567 70.7588 63.9565 71.6633 64.8701C72.5669 65.7837 73.0904 66.6976 73.0904 68.5249V77.6612C73.0904 78.5749 72.5669 79.4878 71.6633 80.4015C70.7588 81.3151 69.7593 82.2294 68.5223 82.2294H59.386C58.149 82.2294 57.1495 81.3151 56.245 80.4015C55.3414 79.4878 54.8179 78.5749 54.8179 77.6612V68.5249C54.8179 66.6976 55.3414 65.7837 56.245 64.8701C57.1495 63.9565 58.149 63.9567 59.386 63.9567ZM86.7948 63.9567H100.499H118.772H132.476C133.709 63.9567 134.714 63.9565 135.619 64.8701C136.523 65.7837 137.044 66.6976 137.044 68.5249V105.07C137.044 105.984 136.523 106.897 135.619 107.811C134.714 108.724 133.709 109.638 132.476 109.638H118.772H100.499H86.7948C85.5577 109.638 84.5582 108.724 83.6537 107.811C82.7502 106.897 82.2266 105.984 82.2266 105.07V68.5249C82.2266 66.6976 82.7502 65.7837 83.6537 64.8701C84.5582 63.9565 85.5577 63.9567 86.7948 63.9567ZM150.749 63.9567H159.885C161.118 63.9567 162.123 63.9565 163.028 64.8701C163.932 65.7837 164.453 66.6976 164.453 68.5249V77.6612C164.453 78.5749 163.932 79.4878 163.028 80.4015C162.123 81.3151 161.118 82.2294 159.885 82.2294H150.749C149.515 82.2294 148.51 81.3151 147.606 80.4015C146.701 79.4878 146.18 78.5749 146.18 77.6612V68.5249C146.18 66.6976 146.701 65.7837 147.606 64.8701C148.51 63.9565 149.515 63.9567 150.749 63.9567ZM59.386 91.3658H68.5223C69.7593 91.3658 70.7588 91.3655 71.6633 92.2792C72.5669 93.1928 73.0904 94.1067 73.0904 95.934V105.07C73.0904 105.984 72.5669 106.897 71.6633 107.811C70.7588 108.724 69.7593 109.638 68.5223 109.638H59.386C58.149 109.638 57.1495 108.724 56.245 107.811C55.3414 106.897 54.8179 105.984 54.8179 105.07V95.934C54.8179 94.1067 55.3414 93.1928 56.245 92.2792C57.1495 91.3655 58.149 91.3658 59.386 91.3658ZM150.749 91.3658H159.885C161.118 91.3658 162.123 91.3655 163.028 92.2792C163.932 93.1928 164.453 94.1067 164.453 95.934V105.07C164.453 105.984 163.932 106.897 163.028 107.811C162.123 108.724 161.118 109.638 159.885 109.638H150.749C149.515 109.638 148.51 108.724 147.606 107.811C146.701 106.897 146.18 105.984 146.18 105.07V95.934C146.18 94.1067 146.701 93.1928 147.606 92.2792C148.51 91.3655 149.515 91.3658 150.749 91.3658ZM59.386 118.775H68.5223C69.7593 118.775 70.7588 118.775 71.6633 119.688C72.5669 120.602 73.0904 121.516 73.0904 123.343V132.479C73.0904 133.393 72.5669 134.306 71.6633 135.22C70.7588 136.133 69.7593 137.048 68.5223 137.048H59.386C58.149 137.048 57.1495 136.133 56.245 135.22C55.3414 134.306 54.8179 133.393 54.8179 132.479V123.343C54.8179 121.516 55.3414 120.602 56.245 119.688C57.1495 118.775 58.149 118.775 59.386 118.775ZM86.7948 118.775H100.499H118.772H132.476C133.709 118.775 134.714 118.775 135.619 119.688C136.523 120.602 137.044 121.516 137.044 123.343V159.888C137.044 160.802 136.523 161.715 135.619 162.629C134.714 163.542 133.709 164.457 132.476 164.457H118.772H100.499H86.7948C85.5577 164.457 84.5582 163.542 83.6537 162.629C82.7502 161.715 82.2266 160.802 82.2266 159.888V123.343C82.2266 121.516 82.7502 120.602 83.6537 119.688C84.5582 118.775 85.5577 118.775 86.7948 118.775ZM150.749 118.775H159.885C161.118 118.775 162.123 118.775 163.028 119.688C163.932 120.602 164.453 121.516 164.453 123.343V132.479C164.453 133.393 163.932 134.306 163.028 135.22C162.123 136.133 161.118 137.048 159.885 137.048H150.749C149.515 137.048 148.51 136.133 147.606 135.22C146.701 134.306 146.18 133.393 146.18 132.479V123.343C146.18 121.516 146.701 120.602 147.606 119.688C148.51 118.775 149.515 118.775 150.749 118.775ZM59.386 146.184H68.5223C69.7593 146.184 70.7588 146.184 71.6633 147.097C72.5669 148.011 73.0904 148.925 73.0904 150.752V159.888C73.0904 160.802 72.5669 161.715 71.6633 162.629C70.7588 163.542 69.7593 164.457 68.5223 164.457H59.386C58.149 164.457 57.1495 163.542 56.245 162.629C55.3414 161.715 54.8179 160.802 54.8179 159.888V150.752C54.8179 148.925 55.3414 148.011 56.245 147.097C57.1495 146.184 58.149 146.184 59.386 146.184ZM150.749 146.184H159.885C161.118 146.184 162.123 146.184 163.028 147.097C163.932 148.011 164.453 148.925 164.453 150.752V159.888C164.453 160.802 163.932 161.715 163.028 162.629C162.123 163.542 161.118 164.457 159.885 164.457H150.749C149.515 164.457 148.51 163.542 147.606 162.629C146.701 161.715 146.18 160.802 146.18 159.888V150.752C146.18 148.925 146.701 148.011 147.606 147.097C148.51 146.184 149.515 146.184 150.749 146.184Z" fill="#2980B9"/>
</svg>
