<svg width="220" height="201" viewBox="0 0 220 201" fill="none" xmlns="http://www.w3.org/2000/svg">
<path d="M18.2727 36.5449C8.1807 36.5449 0 44.7676 0 54.8176V182.727C0 192.777 8.18097 200.999 18.2727 200.999H201C211.096 200.999 219.273 192.777 219.273 182.727V54.8176C219.273 44.7676 211.096 36.5449 201 36.5449H18.2727Z" fill="#2980B9"/>
<path d="M27.4094 0C17.3174 0 9.13672 8.22273 9.13672 18.2727V146.182C9.13672 156.232 17.3174 164.455 27.4094 164.455H127.909H173.591H191.864C201.96 164.455 210.137 156.232 210.137 146.182V63.9545V36.5455C210.137 26.4955 201.96 18.2727 191.864 18.2727H173.591H127.909H118.773L91.364 0H27.4094Z" fill="#2980B9"/>
<path d="M210.137 118.772V45.6809C210.137 35.6309 201.96 27.4082 191.864 27.4082H91.364H45.6822H27.4094C17.3174 27.4082 9.13672 35.6309 9.13672 45.6809V118.772H210.137Z" fill="#BDC3C7"/>
<path d="M18.2727 36.5449C8.1807 36.5449 0 44.7676 0 54.8176V109.636V118.772V173.59C0 183.64 8.18097 191.863 18.2727 191.863H201C211.096 191.863 219.273 183.64 219.273 173.59V118.772V109.636V54.8176C219.273 44.7676 211.096 36.5449 201 36.5449H18.2727Z" fill="#3498DB"/>
<path d="M155.318 61.6706V141.614C155.318 143.989 154.505 146.109 152.888 147.964C151.271 149.818 149.224 151.271 146.748 152.322C144.281 153.318 141.805 154.085 139.329 154.606C136.899 155.081 134.615 155.318 132.477 155.318C130.339 155.318 128.028 155.081 125.552 154.606C123.131 154.085 120.673 153.318 118.206 152.322C115.73 151.271 113.684 149.818 112.066 147.964C110.449 146.109 109.636 143.989 109.636 141.614C109.636 139.238 110.449 137.119 112.066 135.264C113.684 133.409 115.73 131.975 118.206 130.979C120.673 129.928 123.131 129.17 125.552 128.695C128.028 128.174 130.339 127.909 132.477 127.909C137.475 127.909 142.043 128.841 146.182 130.696V92.3597L91.3635 109.28V159.887C91.3635 162.262 90.5549 164.382 88.9368 166.236C87.3188 168.091 85.2722 169.525 82.7981 170.521C80.324 171.572 77.8489 172.33 75.3748 172.805C72.9482 173.326 70.6641 173.591 68.5225 173.591C66.381 173.591 64.0731 173.326 61.599 172.805C59.1724 172.33 56.7211 171.572 54.247 170.521C51.7729 169.525 49.7263 168.091 48.1083 166.236C46.4902 164.382 45.6816 162.262 45.6816 159.887C45.6816 157.511 46.4902 155.391 48.1083 153.537C49.7263 151.682 51.7729 150.248 54.247 149.252C56.7211 148.201 59.1724 147.443 61.599 146.968C64.0731 146.447 66.381 146.182 68.5225 146.182C73.5192 146.182 78.0874 147.114 82.2271 148.969V79.9434C82.2271 78.4688 82.6793 77.1358 83.5829 75.9462C84.4874 74.7091 85.6532 73.8521 87.0803 73.3761L146.465 55.1034C147.04 54.9134 147.707 54.8184 148.466 54.8184C150.366 54.8184 151.983 55.4844 153.317 56.8174C154.651 58.1495 155.318 59.7675 155.318 61.6706Z" fill="#2980B9"/>
</svg>
