<svg width="34" height="39" viewBox="0 0 34 39" fill="none" xmlns="http://www.w3.org/2000/svg">
<path d="M26.9173 13V11.375C26.9173 8.35816 25.8725 5.46489 24.0128 3.33166C22.1531 1.19843 19.6307 0 17.0007 0C14.3706 0 11.8482 1.19843 9.98851 3.33166C8.12877 5.46489 7.08398 8.35816 7.08398 11.375V13H2.83398V34.125C2.83398 35.4179 3.28175 36.6579 4.07878 37.5721C4.87581 38.4864 5.95681 39 7.08398 39H26.9173C28.0445 39 29.1255 38.4864 29.9225 37.5721C30.7196 36.6579 31.1673 35.4179 31.1673 34.125V13H26.9173ZM18.4173 29.25H15.584V22.75H18.4173V29.25ZM24.084 13H9.91732V11.375C9.91732 9.22012 10.6636 7.15349 11.992 5.62976C13.3204 4.10602 15.122 3.25 17.0007 3.25C18.8793 3.25 20.6809 4.10602 22.0093 5.62976C23.3377 7.15349 24.084 9.22012 24.084 11.375V13Z" fill="#05C518"/>
</svg>
