<svg width="69" height="51" viewBox="0 0 69 51" fill="none" xmlns="http://www.w3.org/2000/svg">
<path d="M65.4513 12.7552H26.416V4.25633C26.4171 3.44816 26.2257 2.65637 25.8643 1.97384C25.5029 1.29131 24.9864 0.746349 24.3755 0.402875C23.7646 0.0594018 23.0845 -0.0683379 22.4151 0.0346412C21.7457 0.13762 21.1147 0.467048 20.5962 0.98428L2.56892 18.9593C1.76522 19.7568 1.1183 20.7567 0.674259 21.8879C0.230222 23.019 0 24.2535 0 25.5034C0 26.7533 0.230222 27.9878 0.674259 29.119C1.1183 30.2501 1.76522 31.25 2.56892 32.0475L20.5962 50.0226C21.2346 50.6561 22.0382 51.0019 22.8673 50.9999C23.3814 51.0032 23.8899 50.8727 24.3578 50.6175C24.9737 50.2761 25.495 49.7304 25.8598 49.045C26.2246 48.3596 26.4177 47.5633 26.416 46.7505V38.2517H65.4513C66.3925 38.2517 67.2951 37.804 67.9606 37.0071C68.6261 36.2101 69 35.1293 69 34.0023V17.0046C69 15.8776 68.6261 14.7967 67.9606 13.9998C67.2951 13.2029 66.3925 12.7552 65.4513 12.7552Z" fill="#A0A0A0"/>
</svg>
