<svg width="69" height="51" viewBox="0 0 69 51" fill="none" xmlns="http://www.w3.org/2000/svg">
<path d="M3.54867 12.7552H42.584V4.25633C42.5829 3.44816 42.7743 2.65637 43.1357 1.97384C43.4971 1.29131 44.0136 0.746349 44.6245 0.402875C45.2354 0.0594018 45.9155 -0.0683379 46.5849 0.0346412C47.2543 0.13762 47.8853 0.467048 48.4038 0.98428L66.4311 18.9593C67.2348 19.7568 67.8817 20.7567 68.3257 21.8879C68.7698 23.019 69 24.2535 69 25.5034C69 26.7533 68.7698 27.9878 68.3257 29.119C67.8817 30.2501 67.2348 31.25 66.4311 32.0475L48.4038 50.0226C47.7654 50.6561 46.9618 51.0019 46.1327 50.9999C45.6186 51.0032 45.1101 50.8727 44.6422 50.6175C44.0263 50.2761 43.505 49.7304 43.1402 49.045C42.7754 48.3596 42.5823 47.5633 42.584 46.7505V38.2517H3.54867C2.6075 38.2517 1.70488 37.804 1.03938 37.0071C0.373871 36.2101 0 35.1293 0 34.0023V17.0046C0 15.8776 0.373871 14.7967 1.03938 13.9998C1.70488 13.2029 2.6075 12.7552 3.54867 12.7552Z" fill="#A0A0A0"/>
</svg>
