<svg width="73" height="73" viewBox="0 0 73 73" fill="none" xmlns="http://www.w3.org/2000/svg">
<path fill-rule="evenodd" clip-rule="evenodd" d="M40.6476 15.9688C37.3261 15.9688 34.6336 18.6614 34.6336 21.9829V24.2642H24.2642V34.6336H21.9829C18.6614 34.6336 15.9688 37.3261 15.9688 40.6476C15.9688 43.9694 18.6614 46.6619 21.9829 46.6619H24.2642V57.0312H57.0312V50.9777C52.2866 49.9347 48.7357 45.7059 48.7357 40.6476C48.7357 35.5896 52.2866 31.3608 57.0312 30.3177V24.2642H46.6619V21.9829C46.6619 18.6614 43.9694 15.9688 40.6476 15.9688ZM30.3177 19.7017C31.3608 14.9569 35.5896 11.4062 40.6476 11.4062C45.7059 11.4062 49.9347 14.9569 50.9777 19.7017H61.5938V34.6336H59.3125C55.991 34.6336 53.2982 37.3261 53.2982 40.6476C53.2982 43.9694 55.991 46.6619 59.3125 46.6619H61.5938V61.5938H19.7017V50.9777C14.9569 49.9347 11.4062 45.7059 11.4062 40.6476C11.4062 35.5896 14.9569 31.3608 19.7017 30.3177V19.7017H30.3177Z" fill="#A0A0A0"/>
</svg>
