<svg width="58" height="67" viewBox="0 0 58 67" fill="none" xmlns="http://www.w3.org/2000/svg">
<path d="M55.1339 24.7642C54.16 21.7268 51.869 19.9178 49.1527 20.0658C46.6031 20.1607 44.0535 20.2389 41.5039 20.2975C39.7712 20.4538 38.1858 19.0385 37.6566 17.0703C36.9026 14.2508 36.1486 11.434 35.3801 8.61997C34.5222 5.45143 32.0161 3.40234 28.9977 3.40234C25.9793 3.40234 23.4756 5.45143 22.6153 8.61718C21.8468 11.4312 21.0928 14.248 20.3388 17.0676C19.8119 19.0385 18.3329 20.4399 16.4914 20.2947C13.9418 20.2361 11.3923 20.1579 8.85717 20.063C6.14808 19.9262 3.83534 21.7241 2.86142 24.7642C1.95517 27.5977 2.30075 31.5954 5.12584 34.1498C7.18 35.9755 9.22208 37.7594 11.2593 39.5209C12.6924 40.7604 13.2531 42.9575 12.6538 44.9898C11.8007 47.8764 10.9162 50.7825 9.98817 53.697C8.9345 56.927 9.64017 60.143 11.8297 62.086C14.1303 64.1267 17.4097 64.0709 19.998 61.938L26.494 56.5333C27.9923 55.2911 30.0054 55.2883 31.5038 56.5333L38.0046 61.9408C39.3265 63.0296 40.8297 63.5767 42.2942 63.5767C43.6886 63.5767 45.0443 63.0798 46.1681 62.0832C48.3576 60.1374 49.0633 56.9242 48.012 53.7054C47.0816 50.7797 46.1971 47.8736 45.344 44.987C44.7447 42.9547 45.3029 40.7576 46.736 39.5181C48.7757 37.7594 50.8153 35.9727 52.8792 34.1386C55.697 31.5898 56.0426 27.5921 55.1363 24.7586L55.1339 24.7642ZM51.3953 31.9388C49.3508 33.7561 47.3184 35.5344 45.2884 37.2876C43.0143 39.2557 42.1177 42.7118 43.0578 45.8943C43.9157 48.8004 44.8075 51.7233 45.7476 54.6825C46.4218 56.7483 46.0279 58.6913 44.6939 59.875C43.5798 60.8688 41.5208 61.416 39.4159 59.6796L32.9175 54.2721C31.7454 53.2978 30.3728 52.8121 29.0001 52.8121C27.6274 52.8121 26.2548 53.2978 25.0827 54.2693L18.5891 59.6712C16.4793 61.4104 14.4252 60.866 13.3038 59.8722C11.9698 58.6885 11.5759 56.7455 12.2526 54.6685C13.1903 51.7205 14.082 48.7948 14.9399 45.8887C15.88 42.709 14.981 39.2501 12.7069 37.282C10.6793 35.5288 8.64692 33.7533 6.60967 31.9416C4.75125 30.261 4.52892 27.6117 5.13067 25.7301C5.73483 23.8429 7.0785 22.7905 8.76775 22.8491C11.327 22.9468 13.8863 23.0222 16.4479 23.0808C19.2368 23.1925 21.8008 21.0596 22.6491 17.8855C23.4031 15.0687 24.1547 12.2603 24.9232 9.44909C25.5757 7.04268 27.5259 6.18843 29.0001 6.18843C30.4743 6.18843 32.4245 7.04268 33.077 9.44909C33.8455 12.2603 34.5971 15.0715 35.3511 17.8883C36.2018 21.0596 38.7441 23.1757 41.5523 23.0808C44.1139 23.0222 46.6732 22.944 49.2469 22.8491C50.9313 22.7821 52.2629 23.8401 52.8695 25.7273C53.4737 27.6089 53.2489 30.261 51.3977 31.9332L51.3953 31.9388Z" fill="#353535"/>
</svg>
