<svg width="78" height="79" viewBox="0 0 78 79" fill="none" xmlns="http://www.w3.org/2000/svg">
<path opacity="0.3" d="M30 37C33.866 37 37 33.866 37 30C37 26.134 33.866 23 30 23C26.134 23 23 26.134 23 30C23 33.866 26.134 37 30 37Z" fill="white"/>
<path opacity="0.2" d="M53 29.5C53 41.9265 42.9265 52 30.5 52C18.0736 52 8 41.9265 8 29.5C8 17.0736 18.0736 7 30.5 7C42.9265 7 53 17.0736 53 29.5Z" stroke="white" stroke-width="5" stroke-linecap="round" stroke-linejoin="round"/>
<path opacity="0.3" d="M55.045 63.9999H44.2499V75.2499H57.7908C68.9519 75.2499 77.9999 66.2019 77.9999 55.0409C77.9999 49.6811 75.8707 44.5408 72.0809 40.7509L67.9957 36.6657L51.1207 44.1657L42.6024 35.6475L34.6475 43.6024L55.045 63.9999Z" fill="#B8B8B8"/>
</svg>
