<svg width="62" height="73" viewBox="0 0 62 73" fill="none" xmlns="http://www.w3.org/2000/svg">
<path d="M58.125 31.9375H3.875C1.73491 31.9375 0 33.9802 0 36.5C0 39.0198 1.73491 41.0625 3.875 41.0625H58.125C60.2651 41.0625 62 39.0198 62 36.5C62 33.9802 60.2651 31.9375 58.125 31.9375Z" fill="#A0A0A0"/>
<path d="M3.875 19.7715H58.125C60.2651 19.7715 62 17.7288 62 15.209C62 12.6892 60.2651 10.6465 58.125 10.6465H3.875C1.73491 10.6465 0 12.6892 0 15.209C0 17.7288 1.73491 19.7715 3.875 19.7715Z" fill="#A0A0A0"/>
<path d="M58.125 53.2305H3.875C1.73491 53.2305 0 55.2732 0 57.793C0 60.3128 1.73491 62.3555 3.875 62.3555H58.125C60.2651 62.3555 62 60.3128 62 57.793C62 55.2732 60.2651 53.2305 58.125 53.2305Z" fill="#A0A0A0"/>
</svg>
