<svg width="60" height="64" viewBox="0 0 60 64" fill="none" xmlns="http://www.w3.org/2000/svg">
<path d="M6.69315 28.4899C6.98742 28.4899 7.37978 28.3755 7.67406 28.2611L18.5622 23.7988C19.7392 23.3412 20.3278 21.8537 19.9354 20.4807C19.5431 19.1077 18.2679 18.4212 17.0908 18.8789L10.3225 21.6249C13.5595 11.785 21.7992 5.14879 31.2159 5.14879C41.5154 5.14879 50.4417 13.158 52.9921 24.5998C53.2864 25.9728 54.4634 26.7737 55.6405 26.4304C56.8176 26.0872 57.5043 24.7142 57.21 23.3412C54.1692 9.61107 43.4773 0 31.1178 0C20.1316 0 10.4206 7.55155 6.39888 18.8789L4.33896 12.0138C3.9466 10.6408 2.67142 9.95432 1.49433 10.412C0.317235 10.8697 -0.271311 12.3571 0.121053 13.7301L3.84851 26.2016C4.43706 27.689 5.51606 28.4899 6.69315 28.4899Z" fill="#A0A0A0"/>
<path d="M59.3675 52.1667L55.3458 39.9241C55.0515 39.1231 54.5611 38.4366 53.8744 38.0934C53.1878 37.7501 52.4031 37.7501 51.7164 38.0934L40.9264 42.8989C39.7493 43.3566 39.2589 44.844 39.6513 46.217C40.0436 47.59 41.3188 48.1621 42.4959 47.7044L49.2642 44.7296C45.3405 53.0821 37.6894 58.5741 29.1555 58.5741C19.4445 58.5741 10.9106 51.4802 7.86978 40.9538C7.47742 39.5808 6.20223 38.8943 5.12323 39.352C3.94614 39.8096 3.3576 41.2971 3.74996 42.5557C7.37933 55.1416 17.5808 63.6085 29.1555 63.6085C39.2589 63.6085 48.3813 57.0867 52.9916 47.0179L55.2477 53.9974C55.542 55.0272 56.4248 55.5992 57.3076 55.5992C57.6019 55.5992 57.7981 55.5992 58.0924 55.3704C59.2694 55.0272 59.7599 53.5397 59.3675 52.1667Z" fill="#A0A0A0"/>
</svg>
